<?xml version="1.0"?>
<svg width="1280" height="800" xmlns="http://www.w3.org/2000/svg" xmlns:svg="http://www.w3.org/2000/svg" preserveAspectRatio="xMidYMid meet">
 <metadata>Created by potrace 1.15, written by Peter Selinger 2001-2017</metadata>
 <g class="layer">
  <title>Layer 1</title>
  <g fill="#ffff" id="svg_1" transform="translate(0.000000,789.000000) scale(0.100000,-0.100000)">
   <path d="m5972,7870c-120,-43 -275,-188 -338,-315c-65,-132 -57,-246 23,-335c70,-78 215,-140 329,-140c54,0 143,26 191,56c90,57 213,149 213,161c0,26 -32,12 -123,-53c-164,-118 -258,-145 -383,-109c-222,64 -303,214 -216,400c75,160 238,301 362,313c42,4 49,1 70,-24c20,-27 22,-36 17,-116c-6,-88 0,-110 23,-83c18,22 25,168 10,205c-25,59 -86,73 -178,40z" id="svg_2"/>
   <path d="m6626,7821c-3,-4 3,-55 14,-112c11,-57 20,-109 20,-115c0,-6 -33,-18 -74,-28c-74,-17 -104,-35 -91,-56c8,-12 38,-13 51,-1c10,10 116,42 121,37c2,-2 13,-55 25,-117c21,-118 30,-141 49,-122c7,7 4,42 -10,119c-12,60 -21,114 -21,120c0,6 57,26 128,43c200,50 202,51 202,66c0,21 -5,20 -178,-21c-84,-20 -155,-34 -159,-31c-3,4 -14,52 -24,107c-10,56 -21,105 -24,110c-8,12 -22,13 -29,1z" id="svg_3"/>
   <path d="m7096,7822c-3,-5 -1,-46 4,-91l9,-82l-39,-38c-32,-31 -40,-45 -40,-74c0,-51 26,-49 40,3c6,22 19,44 29,50c17,9 19,4 25,-58c11,-115 17,-142 31,-142c20,0 22,15 13,92c-15,146 -22,128 59,148c76,20 153,55 153,70c0,19 -19,19 -62,0c-24,-10 -71,-26 -103,-35c-69,-17 -74,-14 -76,55c-1,25 -4,58 -8,74c-6,30 -25,44 -35,28z" id="svg_4"/>
   <path d="m7773,6241c-90,-56 -149,-308 -112,-483c16,-77 61,-169 105,-218c126,-140 307,-90 447,123c35,53 42,87 19,87c-5,0 -22,-19 -37,-42c-41,-62 -124,-146 -170,-173c-122,-72 -240,-24 -295,121c-28,74 -39,265 -21,370c15,83 47,160 75,179c48,34 94,17 210,-75c42,-33 80,-60 86,-60c23,0 6,32 -47,87c-94,97 -189,127 -260,84z" id="svg_5"/>
   <path d="m8815,6215c-8,-14 -22,-36 -30,-50c-27,-44 -176,-205 -190,-205c-7,0 -51,18 -98,41c-79,38 -107,43 -107,18c0,-5 38,-28 85,-51c47,-23 85,-45 85,-48c0,-3 -22,-28 -50,-55l-50,-49l-69,33c-38,19 -74,31 -80,27c-17,-11 -5,-24 47,-51c80,-41 79,-34 17,-121c-76,-105 -80,-113 -60,-120c9,-4 17,-5 19,-3c2,2 31,43 65,92c34,48 65,87 68,87c3,0 32,-16 64,-36l59,-35l-40,-50c-22,-28 -40,-57 -40,-64c0,-33 22,-22 61,30c23,30 46,55 51,55c5,0 28,-13 51,-29c71,-48 179,-102 200,-99c27,4 34,26 10,34c-42,13 -92,38 -160,80l-73,45l66,56c60,51 68,55 89,43c41,-22 129,-99 142,-125c15,-28 31,-32 39,-10c9,22 -40,81 -107,128c-32,23 -59,46 -59,50c0,5 16,27 35,50c40,47 97,155 89,168c-13,21 -31,5 -62,-55c-18,-35 -48,-81 -67,-104l-35,-40l-73,42l-74,41l80,85c90,95 137,163 137,197c0,30 -16,29 -35,-2zm-140,-349c33,-18 60,-38 60,-43c0,-6 -26,-32 -58,-58l-58,-48l-35,19c-19,10 -47,29 -62,41l-27,22l50,50c27,28 54,51 60,51c5,0 37,-15 70,-34z" id="svg_6"/>
   <path d="m4439,6158c-52,-55 -95,-196 -129,-426c-20,-135 -20,-152 4,-152c13,0 36,112 36,173c0,39 14,46 125,62c61,8 117,18 126,20c14,5 18,-9 28,-92c6,-54 15,-143 19,-198c5,-79 10,-100 22,-100c12,0 15,16 12,95c-2,82 -17,258 -25,292c-1,6 35,22 81,36c73,22 99,41 75,55c-5,3 -43,-6 -86,-18c-55,-16 -79,-20 -82,-11c-2,6 -11,38 -20,71c-32,113 -100,215 -144,215c-11,0 -30,-10 -42,-22zm91,-65c29,-49 80,-206 71,-216c-8,-8 -223,-38 -230,-31c-5,4 14,94 35,169c33,117 82,148 124,78z" id="svg_7"/>
   <path d="m4200,6148c-5,-13 -46,-125 -90,-249c-43,-125 -90,-250 -102,-279l-23,-52l-59,144c-66,161 -150,333 -167,343c-6,4 -15,3 -21,-3c-6,-6 8,-44 41,-110c28,-55 78,-167 112,-249c33,-81 67,-155 75,-163c34,-35 78,33 130,200c20,63 61,183 90,266c30,83 54,156 54,162c0,21 -30,13 -40,-10z" id="svg_8"/>
   <path d="m10120,6157c0,-9 5,-19 10,-22c6,-4 10,-62 10,-140l0,-134l-42,-3c-30,-2 -43,-8 -43,-18c0,-10 13,-16 43,-18l42,-3l0,-165c0,-152 1,-165 18,-162c15,3 17,20 20,165l2,163l188,2c158,3 187,5 187,18c0,13 -29,15 -187,18l-188,2l0,126c0,116 1,126 18,119c9,-4 53,-16 96,-27c68,-17 103,-20 252,-16c118,2 177,7 186,16c6,6 9,14 6,17c-3,4 -100,7 -214,8c-202,3 -212,4 -284,31c-104,39 -120,42 -120,23z" id="svg_9"/>
   <path d="m3507,6088c-9,-7 -29,-37 -45,-66l-29,-52l-12,55c-8,34 -18,55 -26,55c-24,0 -24,-14 -4,-95c19,-71 19,-85 7,-145c-18,-92 -15,-255 5,-302c21,-46 55,-72 74,-56c16,13 18,144 3,237c-6,35 -8,66 -5,69c8,9 112,15 138,8c23,-5 24,-11 36,-138c7,-73 13,-140 14,-148c1,-8 11,-16 21,-18c18,-4 19,1 12,92c-3,53 -9,116 -12,140l-7,44l34,-7c40,-9 59,-4 59,15c0,8 -6,14 -12,14c-7,0 -29,5 -49,10c-35,10 -36,11 -53,92c-36,171 -89,240 -149,196zm98,-154c13,-49 22,-89 22,-90c-1,-1 -39,-4 -84,-7c-80,-6 -81,-6 -87,18c-7,29 22,111 60,168l26,40l20,-21c11,-11 30,-58 43,-108zm-149,-311c5,-65 4,-93 -4,-93c-25,0 -43,163 -25,230c7,24 7,23 15,-10c4,-19 11,-77 14,-127z" id="svg_10"/>
   <path d="m10896,5965c-53,-108 -137,-208 -257,-305c-119,-97 -159,-135 -159,-148c0,-22 66,-34 234,-42c180,-9 210,-7 203,14c-2,7 -64,14 -181,18c-98,5 -185,12 -194,17c-13,7 -7,15 33,42c103,72 201,157 252,219c89,110 155,260 115,260c-5,0 -26,-34 -46,-75z" id="svg_11"/>
   <path d="m11453,6009c-23,-16 -69,-65 -102,-110c-34,-44 -61,-78 -61,-76c0,3 7,21 16,42c16,39 12,69 -8,63c-17,-6 -197,-431 -187,-442c13,-14 33,8 78,84c35,58 47,71 79,80c66,18 101,12 161,-28c11,-8 0,-40 -54,-161c-41,-93 -65,-157 -61,-168c11,-27 28,-1 91,137c162,356 206,528 150,590c-25,27 -53,24 -102,-11zm75,-21c26,-26 14,-106 -40,-255l-30,-83l-44,26c-37,22 -54,26 -95,22c-40,-4 -49,-2 -45,9c13,32 140,216 175,253c39,42 59,48 79,28z" id="svg_12"/>
   <path d="m3020,5985c-58,-19 -131,-40 -163,-46c-60,-12 -76,-24 -59,-41c15,-15 124,7 255,50c116,39 135,38 148,-10c13,-48 21,-798 10,-911c-16,-167 -56,-234 -145,-244c-40,-5 -48,-2 -75,24c-53,54 -64,147 -32,275c26,99 57,171 131,303c93,164 103,186 91,198c-12,12 -41,-8 -41,-27c0,-7 -21,-45 -46,-86c-68,-110 -121,-219 -156,-323c-27,-77 -32,-107 -32,-187c-1,-83 2,-100 24,-139c29,-50 78,-81 130,-81c50,0 124,49 148,97c44,88 47,125 45,573c-3,444 -10,541 -45,585c-26,34 -59,32 -188,-10z" id="svg_13"/>
   <path d="m11677,5782c-10,-10 -17,-24 -17,-30c0,-27 60,-77 173,-143c136,-81 187,-125 187,-162c0,-57 -85,-115 -210,-143c-108,-25 -158,-8 -174,59c-8,35 -36,36 -36,2c0,-38 25,-79 55,-93c69,-32 230,-3 324,57c135,87 107,173 -95,296c-195,119 -207,129 -160,141c31,7 120,-18 216,-62c69,-32 110,-38 95,-14c-10,17 -115,66 -189,89c-86,26 -147,27 -169,3z" id="svg_14"/>
   <path d="m12446,5520c-96,-114 -162,-213 -231,-343c-57,-107 -66,-137 -40,-137c9,0 34,38 61,91l45,92l72,-5c67,-4 197,-49 197,-67c0,-4 -6,-15 -14,-26c-26,-38 -87,-198 -81,-213c10,-26 29,3 80,121c26,59 50,107 54,107c3,0 38,-7 76,-15c92,-19 135,-19 135,0c0,8 -12,17 -27,21c-72,16 -147,35 -151,39c-2,2 20,43 48,91c58,94 96,194 101,264c5,56 -21,64 -34,10c-25,-105 -52,-176 -98,-251c-28,-46 -54,-87 -58,-92c-4,-4 -34,2 -68,13c-33,12 -93,26 -133,33l-72,12l51,76c29,42 83,114 121,160c39,46 70,90 70,97c0,31 -34,5 -104,-78z" id="svg_15"/>
   <path d="m6255,5074c-11,-2 -45,-9 -75,-15c-61,-13 -133,-46 -196,-91c-22,-16 -69,-35 -103,-43c-134,-32 -245,-117 -303,-233c-18,-37 -34,-69 -35,-71c-2,-2 -12,4 -23,14c-15,13 -23,16 -31,8c-8,-8 -4,-21 14,-45c23,-30 25,-38 17,-73c-5,-22 -10,-83 -10,-137c0,-298 151,-640 362,-815c93,-77 225,-133 317,-133l28,0l7,-147c17,-367 26,-592 25,-638c0,-43 -2,-47 -12,-31c-180,283 -292,398 -445,456c-53,21 -77,22 -342,25c-278,2 -319,5 -471,41l-67,16l26,25c24,24 24,29 19,116c-6,109 -31,237 -57,287c-37,73 -143,140 -222,140c-17,0 -16,5 10,43c55,81 66,152 33,222c-37,81 -112,121 -254,136c-131,14 -251,34 -417,68c-80,17 -194,34 -255,38c-100,7 -113,6 -153,-13c-24,-12 -48,-27 -53,-35c-14,-23 -11,68 4,104c8,18 21,38 30,45c23,19 161,16 412,-8c116,-12 312,-25 436,-29c250,-10 279,-16 324,-75c56,-73 74,-284 35,-408c-25,-79 -25,-101 -3,-96c26,5 54,108 60,219c10,182 -30,307 -116,357c-41,24 -57,27 -215,34c-94,5 -304,20 -466,33c-162,14 -335,25 -383,25c-84,0 -90,-2 -117,-28c-58,-59 -63,-172 -14,-367c23,-91 78,-268 106,-337c11,-29 33,-37 40,-16c2,6 10,8 16,4c9,-5 6,-13 -10,-26c-17,-14 -20,-21 -12,-30c9,-9 17,-9 33,0c20,10 23,7 37,-27c37,-94 51,-120 83,-156c79,-88 194,-119 441,-122l175,-1l145,-58c352,-142 528,-174 875,-162c146,5 192,3 240,-9c149,-39 271,-155 437,-416l71,-113l-12,-215c-37,-657 -167,-976 -433,-1065c-10,-3 -18,-10 -18,-16c0,-45 136,15 213,95c92,94 163,238 207,424l23,94l37,-104c124,-347 314,-710 454,-866c47,-52 126,-100 146,-88c20,12 9,31 -24,43c-44,16 -119,98 -193,210c-118,178 -348,669 -384,819c-7,27 -15,51 -18,56c-4,4 -2,46 5,95c7,48 18,192 25,320l13,233l120,117c231,224 489,423 661,510c142,72 220,85 325,57c92,-25 270,-55 327,-55c81,0 179,23 378,90c99,33 184,60 190,60c7,0 0,-51 -18,-137c-33,-165 -34,-265 -1,-310c11,-15 42,-39 70,-53c45,-23 59,-25 184,-24c170,0 190,9 230,97c69,155 105,329 105,512c0,195 -30,284 -119,363c-74,65 -218,80 -290,31c-36,-24 -49,-59 -22,-59c8,0 28,11 44,25c36,30 91,33 169,10c68,-20 136,-94 161,-174c26,-87 23,-356 -6,-473c-28,-114 -71,-222 -103,-260l-25,-31l-145,-1c-121,-1 -149,2 -177,17c-70,38 -77,118 -31,337c60,284 98,565 80,583c-18,18 -30,-4 -36,-71c-8,-90 -24,-205 -37,-274l-10,-57l-197,-65c-232,-78 -306,-96 -386,-96c-65,0 -192,20 -325,52c-130,31 -227,10 -400,-84c-174,-94 -439,-307 -651,-520l-67,-68l-7,168c-3,92 -10,255 -16,362c-5,107 -9,219 -9,248l0,52l44,0c64,0 210,45 296,92c205,110 357,270 432,455c56,139 50,315 -14,488c-32,83 -37,118 -24,147c10,21 -22,38 -34,19c-5,-9 -24,12 -56,61c-103,155 -277,296 -423,342c-75,24 -187,39 -226,30zm206,-64c163,-50 357,-220 449,-392l23,-45l-44,-64l-44,-64l-6,50c-16,128 -107,196 -238,181c-75,-9 -215,-66 -219,-90c-3,-15 1,-18 20,-14c12,3 32,9 42,13c16,7 18,5 12,-11c-4,-10 -10,-36 -13,-56c-5,-36 -7,-37 -37,-30c-17,3 -47,7 -66,7c-30,0 -37,5 -55,40c-65,121 -316,166 -434,78c-34,-26 -66,-86 -56,-103c4,-6 -9,-10 -28,-10c-20,0 -46,-9 -61,-21l-27,-21l-54,58c-60,65 -59,64 -16,153c51,106 184,206 290,218c20,2 66,7 103,11c37,4 70,10 73,14c13,12 -6,28 -33,28l-27,0l25,20c31,24 120,59 180,70c63,12 166,4 241,-20zm249,-386c59,-24 82,-62 88,-146c5,-70 0,-96 -41,-212c-25,-70 -82,-136 -119,-136c-81,0 -159,154 -159,313c0,123 32,170 113,169c25,-1 41,4 45,14c7,18 23,18 73,-2zm-534,-38c42,-20 58,-33 69,-60c19,-45 20,-42 -16,-50c-41,-8 -37,-42 4,-38c31,3 33,-7 16,-90c-29,-135 -91,-200 -190,-200c-102,0 -269,114 -320,218c-20,42 -20,46 -5,69c14,21 24,25 66,25c36,0 50,4 50,14c0,8 -7,16 -15,20c-12,4 -13,10 -3,33c30,71 86,96 206,89c60,-4 99,-12 138,-30zm836,-221c27,-107 22,-272 -11,-357c-70,-182 -255,-366 -463,-462c-198,-92 -399,-94 -555,-5c-193,110 -369,395 -418,678c-16,89 -20,268 -7,288c11,17 119,-95 157,-161c85,-150 298,-273 411,-236c89,30 144,117 168,270l11,75l40,-1c22,0 52,-4 68,-7c23,-6 27,-13 27,-43c0,-50 45,-178 80,-229c41,-60 76,-85 118,-85c68,0 121,64 178,216c14,37 51,104 81,148l57,79l19,-44c10,-24 28,-80 39,-124zm-3052,-190c47,-8 139,-25 205,-39c66,-14 172,-30 236,-35c178,-17 234,-39 278,-112c27,-43 27,-101 1,-155c-37,-75 -23,-71 -350,-85c-325,-13 -376,-8 -447,37c-49,32 -79,76 -110,161c-21,58 -62,219 -63,247c0,11 132,1 250,-19zm-284,-12c65,-294 116,-388 232,-435c53,-21 71,-22 257,-22l200,1l-85,-13c-47,-8 -155,-16 -240,-19c-85,-4 -177,-11 -204,-17c-43,-9 -50,-8 -58,7c-6,9 -24,23 -42,30c-29,13 -35,23 -73,142c-23,70 -49,165 -59,211l-17,82l28,30c36,37 53,38 61,3zm1099,-499c82,-42 127,-150 140,-339c6,-72 4,-94 -8,-110c-15,-20 -16,-20 -69,4c-29,12 -100,41 -158,64l-105,41l-220,1c-286,2 -372,22 -455,105c-42,42 -96,168 -80,184c5,5 88,13 182,17c153,7 290,21 468,49c30,5 102,8 160,7c84,-2 113,-6 145,-23z" id="svg_16"/>
   <path d="m6588,4418c-20,-22 -28,-39 -25,-55c3,-14 -1,-23 -9,-23c-18,0 -28,-20 -16,-32c17,-17 82,1 108,29c38,41 29,113 -14,113c-8,0 -27,-14 -44,-32zm42,-38c-6,-11 -19,-24 -30,-30c-19,-10 -19,-9 1,25c21,36 48,40 29,5z" id="svg_17"/>
   <path d="m5946,4478c-9,-12 -16,-32 -16,-45c0,-12 -5,-33 -11,-47c-14,-29 2,-81 28,-90c28,-11 101,44 128,94c16,30 4,60 -24,60c-10,0 -28,11 -41,25c-29,31 -44,31 -64,3zm39,-28c3,-5 1,-10 -4,-10c-6,0 -11,5 -11,10c0,6 2,10 4,10c3,0 8,-4 11,-10z" id="svg_18"/>
   <path d="m6355,4010c-7,-11 37,-40 112,-72c29,-13 53,-26 53,-30c0,-15 -100,-123 -140,-149c-80,-54 -147,-49 -298,21c-81,38 -112,44 -112,20c0,-14 104,-65 197,-96c136,-46 209,-21 330,111l68,75l95,-9c100,-9 110,-8 110,13c0,15 -51,26 -117,26c-29,0 -48,6 -60,19c-12,13 -23,17 -33,11c-9,-6 -40,5 -92,31c-80,40 -102,46 -113,29z" id="svg_19"/>
   <path d="m5946,3860c-20,-28 -57,-65 -81,-82c-44,-31 -59,-58 -32,-58c29,0 108,62 141,112c20,29 36,58 36,65c0,28 -30,10 -64,-37z" id="svg_20"/>
   <path d="m4630,3663c-35,-5 -110,-45 -110,-59c0,-22 13,-22 63,2c29,13 62,24 74,24c27,0 40,19 22,31c-8,5 -16,8 -19,7c-3,0 -16,-2 -30,-5z" id="svg_21"/>
   <path d="m4021,3606c-65,-23 -48,-54 20,-36c30,8 44,8 54,0c18,-15 70,-9 70,8c0,14 -66,42 -95,41c-8,0 -30,-6 -49,-13z" id="svg_22"/>
   <path d="m4257,3573c-4,-3 -7,-12 -7,-20c0,-9 18,-13 68,-13c74,0 88,5 71,27c-12,13 -120,19 -132,6z" id="svg_23"/>
   <path d="m4677,3544c-3,-3 -50,-9 -104,-13c-78,-5 -98,-9 -98,-21c0,-36 246,-14 253,23c3,12 -3,17 -21,17c-13,0 -26,-3 -30,-6z" id="svg_24"/>
   <path d="m4080,3498c-19,-5 -41,-16 -49,-23c-22,-21 7,-29 56,-16c58,16 110,13 154,-10c47,-24 80,-19 58,8c-38,45 -139,64 -219,41z" id="svg_25"/>
   <path d="m4400,3406c-38,-14 -48,-42 -15,-39c71,6 120,20 120,33c0,20 -59,23 -105,6z" id="svg_26"/>
   <path d="m4733,3405c-42,-18 -46,-51 -5,-40c15,4 46,9 70,12c33,4 42,9 42,24c0,15 -7,19 -37,19c-21,-1 -53,-7 -70,-15z" id="svg_27"/>
   <path d="m2435,4429c-101,-67 -178,-95 -286,-104c-103,-9 -119,-13 -119,-32c0,-14 11,-15 93,-9c50,3 115,12 142,20c127,34 360,189 278,185c-10,0 -58,-27 -108,-60z" id="svg_28"/>
   <path d="m9721,4409c-5,-13 -15,-87 -21,-164c-17,-219 -21,-245 -36,-245c-18,0 -18,-26 -1,-37c11,-7 11,-38 -1,-180c-15,-177 -13,-214 11,-194c9,7 18,63 26,163c18,229 4,204 124,212c56,4 110,9 119,12c16,5 18,-11 20,-193c3,-168 5,-198 18,-198c13,0 15,30 18,201l2,201l85,22c86,23 105,35 87,53c-9,9 -31,5 -144,-28c-23,-7 -24,28 -2,171c17,114 14,150 -10,124c-13,-14 -46,-211 -46,-275c0,-38 -6,-40 -148,-50l-103,-7l5,49c17,152 27,367 17,377c-7,7 -13,3 -20,-14z" id="svg_29"/>
   <path d="m1586,4371c-25,-39 -66,-331 -66,-466c0,-222 47,-306 165,-293c77,9 265,128 265,169c0,26 -13,24 -47,-8c-49,-46 -180,-115 -226,-120c-36,-4 -46,-1 -69,22c-35,34 -48,78 -55,180c-6,87 15,271 47,418c11,49 17,93 14,98c-7,12 -21,11 -28,0z" id="svg_30"/>
   <path d="m10580,4329c-126,-8 -210,-22 -353,-60c-78,-22 -97,-33 -80,-50c6,-6 53,2 125,20c140,36 239,50 428,59c119,6 145,10 145,22c0,18 -80,21 -265,9z" id="svg_31"/>
   <path d="m10851,4246c-6,-7 -18,-46 -25,-85c-18,-91 -26,-100 -23,-25c2,47 -1,59 -14,62c-22,4 -29,-61 -28,-273c1,-181 9,-269 26,-286c22,-22 32,29 48,242c15,200 31,324 34,258c2,-54 32,-202 46,-230c9,-16 27,-36 40,-45c24,-15 28,-15 80,11c52,25 131,103 213,210l23,30l-6,-38c-16,-99 -36,-295 -42,-409c-5,-113 -4,-128 10,-128c18,0 23,27 32,175c10,152 26,286 46,377c30,136 10,153 -66,57c-173,-220 -261,-287 -299,-226c-8,12 -20,74 -26,137c-10,97 -38,200 -53,200c-3,0 -10,-6 -16,-14z" id="svg_32"/>
   <path d="m1342,4238c-7,-7 -12,-48 -12,-102c-1,-107 -22,-237 -45,-272c-38,-58 -78,-26 -201,161c-117,178 -133,182 -115,32c6,-51 15,-157 21,-237c14,-209 45,-295 81,-228c18,33 5,175 -30,327c-17,73 -31,136 -31,139c0,3 23,-28 51,-69c76,-110 125,-165 164,-183c40,-19 62,-12 93,30l19,27l7,-61c4,-34 12,-76 18,-94c16,-48 56,-98 79,-98c26,0 24,18 -4,40c-13,10 -29,38 -36,62c-15,49 -30,251 -31,415c0,111 -6,133 -28,111zm-305,-540c-3,-8 -6,-5 -6,6c-1,11 2,17 5,13c3,-3 4,-12 1,-19z" id="svg_33"/>
   <path d="m1971,4201c-13,-31 -21,-71 -21,-105c0,-47 4,-60 30,-89c40,-46 108,-74 227,-93c158,-25 203,-35 203,-44c0,-15 -120,-92 -180,-117c-75,-31 -149,-31 -177,0c-11,12 -24,32 -28,45c-8,28 -35,29 -35,2c0,-34 28,-79 60,-95c40,-20 109,-19 175,4c101,36 242,135 233,163c-7,21 -53,38 -145,54c-137,23 -184,35 -236,61c-80,40 -107,113 -71,198c15,37 13,65 -4,65c-5,0 -19,-22 -31,-49z" id="svg_34"/>
   <path d="m10471,4212c-21,-22 -44,-61 -54,-91c-44,-138 -45,-511 -1,-439c4,7 7,51 5,98c-2,105 13,257 34,327c10,34 29,65 51,87c33,32 38,56 12,56c-6,0 -27,-17 -47,-38z" id="svg_35"/>
   <path d="m825,4140c-81,-70 -163,-114 -241,-130c-43,-9 -54,-15 -52,-28c4,-21 46,-18 123,8c39,13 55,15 55,7c0,-39 45,-305 65,-390c28,-116 63,-228 76,-242c6,-5 13,-5 19,1c7,7 3,35 -14,90c-35,112 -63,238 -86,389c-27,175 -26,187 8,207c45,27 142,118 142,134c0,26 -25,14 -95,-46z" id="svg_36"/>
   <path d="m11826,4171c-3,-5 -30,-82 -59,-172c-58,-176 -90,-246 -200,-434c-78,-135 -89,-178 -45,-183c15,-2 87,11 159,29c73,17 207,44 298,58c126,20 166,30 166,41c0,8 -7,16 -15,17c-8,2 -147,-21 -307,-50c-161,-29 -293,-50 -293,-46c0,3 8,17 19,30c42,55 162,276 200,372c50,125 113,326 105,338c-7,12 -21,12 -28,0z" id="svg_37"/>
   <path d="m334,3973c4,-65 13,-153 20,-197l13,-78l-104,-51c-57,-27 -105,-48 -106,-46c-2,2 -22,73 -45,157c-44,159 -78,252 -94,252c-18,0 -20,-30 -4,-77c32,-98 96,-355 90,-365c-3,-5 0,-17 8,-26c7,-9 29,-63 48,-119c27,-79 39,-103 52,-103c23,0 23,-3 -12,115c-16,55 -30,105 -30,111c0,10 180,104 200,104c4,0 20,-80 34,-177c40,-265 40,-266 52,-270c6,-2 14,2 16,9c7,19 -9,160 -37,322c-14,77 -23,141 -22,142c1,1 27,16 57,34c76,46 140,99 140,116c0,22 -16,17 -67,-22c-25,-19 -67,-46 -93,-59l-47,-24l-11,67c-6,37 -14,101 -17,142c-11,139 -15,160 -32,160c-14,0 -15,-14 -9,-117z" id="svg_38"/>
   <path d="m8468,3664c-5,-4 -8,-13 -8,-21c0,-9 18,-13 65,-13c84,0 127,-18 147,-61c36,-78 31,-196 -18,-400c-23,-96 -28,-108 -52,-118c-80,-31 -121,-22 -144,33c-20,48 -13,229 16,386c23,129 22,170 -5,143c-16,-16 -69,-338 -68,-418c0,-115 32,-179 97,-191c38,-7 138,11 148,28c18,29 66,213 80,310c24,164 5,246 -68,301c-26,20 -176,37 -190,21z" id="svg_39"/>
   <path d="m8440,2967c0,-16 -8,-28 -25,-35c-14,-6 -25,-16 -25,-22c0,-20 29,-22 60,-3c25,14 30,23 28,48c-4,38 -38,49 -38,12z" id="svg_40"/>
   <path d="m3730,2666c-144,-75 -236,-129 -238,-139c-2,-10 2,-17 9,-17c12,0 377,186 452,230c36,21 50,50 25,50c-7,0 -119,-56 -248,-124z" id="svg_41"/>
   <path d="m3248,2551c-151,-115 -195,-157 -182,-171c8,-8 26,1 70,34c256,195 278,216 236,216c-11,0 -66,-36 -124,-79z" id="svg_42"/>
   <path d="m10684,2556c-44,-19 -76,-63 -72,-100c4,-40 31,-41 38,-2c3,16 18,38 33,50c25,18 42,21 130,20c119,0 233,-27 343,-79c120,-58 153,-113 94,-156c-37,-27 -161,-56 -277,-64l-101,-7l-4,48c-3,47 1,91 18,178c6,31 4,38 -7,34c-29,-9 -44,-62 -47,-165l-4,-103l-78,0c-54,0 -80,4 -82,12c-3,9 -20,6 -59,-13c-30,-15 -66,-29 -80,-33c-24,-5 -27,-2 -39,39c-20,73 -117,172 -143,146c-7,-7 3,-23 36,-54c40,-37 77,-97 77,-125c0,-5 -54,-12 -120,-15c-66,-3 -129,-11 -141,-17c-11,-7 -22,-10 -24,-8c-2,2 -7,53 -10,113c-8,135 -11,155 -30,155c-22,0 -20,-90 6,-291c12,-90 26,-209 33,-264c9,-82 14,-100 29,-103c13,-3 17,3 17,25c0,33 -18,187 -25,221c-4,15 -1,22 10,22c13,0 15,9 9,49c-6,45 -4,50 16,56c12,4 70,5 129,4c82,-3 108,-7 113,-19c4,-8 7,-72 7,-142c1,-105 4,-128 16,-128c21,0 28,56 23,181l-5,109l36,10c20,5 51,19 69,30c27,16 37,18 48,9c9,-8 40,-10 90,-7c90,6 79,22 119,-181c27,-132 42,-168 62,-147c4,3 -8,75 -25,159c-18,84 -32,158 -32,165c0,8 15,12 43,12c62,0 226,26 283,45c27,10 64,28 82,42c105,79 -47,213 -322,283c-92,23 -235,26 -282,6z" id="svg_43"/>
   <path d="m3674,2535c-4,-10 9,-101 29,-204c21,-102 40,-216 43,-253c7,-69 27,-107 40,-74c9,24 -13,182 -51,367c-33,160 -48,200 -61,164z" id="svg_44"/>
   <path d="m3360,2354c-36,-31 -96,-78 -135,-105l-70,-50l-19,71c-17,64 -35,86 -50,61c-9,-14 60,-234 94,-300c35,-70 90,-121 129,-121c15,0 47,14 70,30c47,34 141,156 141,183c0,32 -28,17 -58,-30c-41,-63 -110,-132 -140,-140c-36,-9 -73,24 -109,97c-53,107 -53,108 24,160c63,42 200,153 215,174c8,13 0,26 -15,26c-7,-1 -41,-26 -77,-56z" id="svg_45"/>
   <path d="m9493,2395c-14,-10 -23,-27 -23,-43c0,-38 46,-132 65,-132c19,0 19,4 -5,66c-10,29 -16,54 -13,58c4,3 36,6 73,6c61,0 72,-3 140,-46c150,-92 244,-194 238,-257c-3,-27 -9,-34 -43,-45c-22,-8 -77,-16 -122,-19l-81,-6l-12,59c-45,223 -61,270 -76,229c-4,-10 0,-57 10,-104c23,-114 27,-138 20,-123c-3,6 -12,12 -20,12c-25,0 -16,-50 15,-79c27,-25 30,-37 40,-127c6,-54 12,-117 14,-139c1,-30 7,-41 21,-43c18,-4 19,1 13,89c-4,52 -10,117 -13,145c-6,50 -6,52 17,47c35,-6 172,13 204,28c16,8 37,26 48,41c20,26 20,28 2,75c-58,151 -425,372 -512,308z" id="svg_46"/>
   <path d="m2953,2358c16,-134 29,-358 23,-390c-15,-78 -48,-54 -220,155c-154,189 -217,197 -188,24c22,-123 106,-302 142,-302c25,0 23,72 -4,185c-13,58 -23,106 -22,108c2,1 38,-40 80,-93c160,-196 225,-211 247,-59c10,69 8,109 -13,307c-10,95 -14,107 -31,107c-17,0 -18,-5 -14,-42zm-307,-244c17,-60 35,-125 38,-144l7,-35l-17,30c-21,37 -70,179 -80,230c-5,30 -4,37 7,33c8,-3 28,-53 45,-114z" id="svg_47"/>
   <path d="m8422,2296c-30,-26 -92,-133 -92,-160c0,-32 -17,-15 -26,26c-6,28 -15,44 -27,46c-22,4 -22,-14 2,-104c13,-51 17,-92 13,-142c-6,-93 4,-153 33,-197l25,-36l-78,3c-63,2 -77,0 -77,-12c0,-23 77,-32 280,-33c193,-2 252,7 337,49c118,59 125,173 15,251c-73,52 -136,62 -262,41c-19,-3 -21,4 -27,97c-10,136 -15,162 -41,180c-29,20 -41,19 -75,-9zm66,-41c7,-15 12,-72 12,-130c0,-136 1,-137 123,-129c88,6 94,5 147,-23c58,-31 100,-81 100,-119c0,-35 -52,-79 -117,-99c-42,-13 -103,-19 -220,-22l-163,-5l0,60c0,33 -7,97 -16,143c-19,98 -11,147 37,250c48,101 75,122 97,74z" id="svg_48"/>
   <path d="m8063,2268c-6,-7 -42,-87 -81,-178c-38,-91 -91,-210 -117,-265l-47,-99l-20,24c-28,35 -81,141 -155,315c-64,150 -78,175 -94,175c-12,0 -11,-54 1,-66c5,-5 55,-108 109,-228c55,-120 108,-227 117,-238c39,-42 53,-24 164,197c114,227 162,347 144,365c-8,8 -14,7 -21,-2z" id="svg_49"/>
   <path d="m2362,1880c-25,-24 -27,-33 -10,-63c6,-12 14,-38 18,-57c6,-38 28,-49 64,-31c11,6 35,12 51,13c33,3 33,6 18,83c-9,42 -27,57 -88,69c-23,5 -36,1 -53,-14z" id="svg_50"/>
   <path d="m4435,1453c-113,-15 -225,-83 -225,-136c0,-54 80,-91 271,-127c195,-37 265,-95 237,-197c-12,-42 -88,-128 -138,-153c-96,-49 -179,-48 -236,3c-26,22 -38,27 -46,19c-17,-17 34,-67 89,-88c106,-41 271,36 344,159c26,45 29,60 26,110c-6,104 -75,150 -282,188c-190,34 -253,71 -209,120c29,32 139,61 239,63c71,2 90,5 90,16c0,23 -78,34 -160,23z" id="svg_51"/>
   <path d="m3790,1421c-118,-38 -213,-144 -213,-239c0,-48 22,-85 73,-119c48,-33 90,-43 230,-53c168,-13 202,-19 239,-41c43,-26 40,-56 -10,-113c-74,-84 -259,-191 -350,-203c-39,-6 -45,-3 -71,27c-33,40 -57,31 -37,-13c12,-27 13,-27 117,-27c102,0 105,1 181,40c85,45 178,121 211,175c31,50 29,103 -4,132c-35,30 -107,50 -208,58c-238,17 -338,62 -338,151c0,77 131,179 244,191c33,3 74,0 101,-7c59,-16 81,-1 39,27c-31,20 -158,29 -204,14z" id="svg_52"/>
   <path d="m3174,1336c-50,-22 -102,-93 -127,-171c-16,-53 -21,-95 -21,-175c0,-164 40,-289 117,-368c90,-92 195,-78 323,45c71,68 111,130 95,146c-10,9 -18,6 -35,-18c-48,-67 -132,-146 -179,-170c-61,-30 -101,-32 -144,-5c-115,69 -178,366 -117,547c46,137 140,176 272,113c55,-26 64,-28 69,-13c8,20 -15,37 -84,63c-62,23 -124,25 -169,6z" id="svg_53"/>
   <path d="m8514,1016c-50,-23 -97,-96 -61,-96c7,0 24,13 38,29c34,38 70,47 138,33c140,-30 207,-140 204,-337c-2,-159 -44,-314 -98,-365l-23,-21l-37,113c-40,120 -59,154 -74,129c-6,-9 5,-54 30,-125c21,-61 39,-117 39,-123c0,-8 -14,-13 -37,-13c-108,0 -246,136 -293,289c-54,174 8,282 193,336c67,19 72,41 8,38c-48,-2 -132,-38 -177,-76c-32,-27 -69,-93 -78,-138l-6,-26l-47,23c-30,15 -89,30 -158,39c-60,9 -126,20 -145,25c-53,15 -100,47 -100,69c0,37 80,51 300,54c116,2 135,4 138,18c2,14 -11,18 -80,23c-85,7 -261,-6 -327,-24c-21,-5 -48,-21 -61,-35l-25,-26l20,-36c26,-47 73,-71 177,-89c46,-8 119,-22 162,-30c118,-21 146,-56 112,-139c-21,-50 -93,-123 -149,-152c-62,-31 -163,-53 -249,-53c-83,0 -265,31 -382,65c-57,16 -93,22 -99,16c-17,-17 2,-29 86,-55c130,-39 155,-45 271,-56c272,-25 467,45 543,195l26,50l12,-35c27,-78 71,-147 129,-205c72,-72 119,-96 201,-104l59,-6l28,-89c30,-97 41,-117 59,-99c8,8 2,38 -22,111l-33,101l27,21c36,28 83,129 103,220c10,44 17,127 18,200c1,119 0,128 -27,178c-38,71 -86,123 -147,156c-61,33 -141,43 -186,22z" id="svg_54"/>
   <path d="m9046,902c-3,-6 2,-27 11,-48c28,-64 22,-219 -15,-413c-18,-90 -32,-187 -32,-215c0,-98 55,-156 149,-156c63,0 221,39 228,56c10,26 -5,27 -94,4c-59,-15 -105,-21 -142,-18c-111,10 -125,76 -69,329c40,182 45,358 13,423c-20,40 -39,54 -49,38z" id="svg_55"/>
   <path d="m7993,850c-28,-11 -30,-40 -4,-40c32,0 81,22 81,36c0,16 -42,18 -77,4z" id="svg_56"/>
  </g>
  <path d="m111.5,50.5c0.17067,-1.714668 1.020668,-1.989582 1.978668,-2c0.773956,-0.008415 1.6875,0 2.540169,0c1.123993,0 1.790993,0 2.501999,0c0.730995,0 2.157997,-0.018013 2.817497,0.008999c0.916397,0.037537 2.020233,0.279289 2.476334,0.564335c0.710335,0.443935 1.311256,1.181763 1.88533,2.069332c0.420372,0.649937 0.789429,1.363533 1.200005,2.052002c0.585068,0.98106 1.204735,1.800907 1.599998,2.326164c0.404877,0.538029 1.018326,1.469749 1.398666,2.232502c0.410706,0.823643 0.76918,1.70512 0.944168,2.145832c0.501556,1.263168 0.780334,2.029938 1.021164,2.750168c0.233612,0.69862 0.639313,2.183208 0.73584,2.593334c0.202637,0.861053 0.387466,1.755882 0.542999,2.652c0.07579,0.436661 0.282867,2.033974 0.321167,2.73333c0.035599,0.650185 0.035995,1.872002 0.035995,2.7855c0,0.649002 0,1.358002 0,2.586502c0,0.952003 0,1.458 0,2.5c0,0.524002 0,1.547997 0,2.935501c0,0.792999 0,1.501999 0,2.460503c0,0.903831 0,1.793327 0,2.646828c0,1.035835 0,1.957169 0,2.641167c0,1.00267 0.000046,1.857666 0,2.477669c-0.000092,1.359665 0.005493,2.091286 -0.020828,2.838333c-0.026337,0.747749 -0.118103,1.83889 -0.331833,2.833832c-0.130508,0.607529 -0.543381,1.823814 -0.626511,2.624504c-0.086945,0.837425 -0.114487,1.832664 -0.020828,1.832664c0.832672,0 0,-1.834 0,-2.563004c0,-0.836998 -0.008453,-2.027954 0.004501,-2.623497c0.018906,-0.868866 0.121674,-1.950195 0.420837,-2.857834c0.195877,-0.594261 0.542755,-1.621185 0.574829,-2.568169c0.023682,-0.699234 0.137146,-1.688843 0.435837,-2.489166c0.244766,-0.655853 0.691711,-1.601738 0.953323,-2.435997c0.284103,-0.905968 0.457138,-1.91861 0.526672,-2.638664c0.072372,-0.749474 0.093475,-1.526672 0.167999,-2.316002c0.113419,-1.201355 0.265686,-2.0047 0.436829,-2.819504c0.17601,-0.837982 0.479904,-2.145668 0.579178,-2.600166c0.201477,-0.92234 0.388275,-1.840096 0.599991,-2.711998c0.284317,-1.170921 0.450516,-1.830719 0.800003,-2.583664c0.439606,-0.947121 1.041458,-1.554169 1.5,-2.25c0.528946,-0.802666 0.811157,-1.672379 1.02533,-2.458672c0.235779,-0.865631 0.494415,-1.612984 1.174667,-2.487999c0.444977,-0.572376 1.399963,-0.891998 2.300003,-0.886665c0.900238,0.005333 1.611282,0.43536 2.100006,1.185333c0.5121,0.785851 1.053116,1.46283 1.566666,2.148003c0.507736,0.677406 0.869507,1.241043 1.237823,1.889999c0.621765,1.095505 1.001099,1.938408 1.374176,2.806c0.183731,0.427269 0.560303,1.233337 0.978333,2.584663c0.19635,0.634705 0.242996,1.587334 0.242996,2.552666c0,0.833336 0,1.812004 0,2.586006c0,0.904495 0,1.651833 0,2.647331c0,0.799995 0,1.799995 0,2.599998c0,1 0,1.78933 0,2.833336c0,0.792 0,1.650665 0,2.514c0,1.016663 0,1.943665 0,1.923332c0,-1.035172 0,-1.642166 0,-2.333168c0,-1.141502 -0.005829,-2.337555 0.004501,-3.137497c0.01033,-0.800102 0.025528,-1.602791 0.16217,-2.800003c0.045761,-0.40097 0.1763,-1.198601 0.354156,-1.979164c0.259857,-1.140411 0.575165,-2.200554 0.779175,-2.86367c0.196136,-0.637527 0.497162,-1.556778 0.899994,-2.755829c0.198593,-0.591141 0.477356,-1.453201 0.900009,-2.479836c0.284866,-0.691925 0.608017,-1.313049 1.098663,-2.320168c0.371429,-0.762398 0.485504,-1.855171 1.022659,-2.480003c0.52594,-0.611778 1.086533,-1.309242 1.639999,-1.946663c0.46962,-0.540863 1.174103,-1.39193 1.834167,-1.813c0.736603,-0.469902 1.704498,-0.361668 2.604507,-0.361668c0.899994,0 1.816299,-0.078354 2.571503,0.114334c0.92157,0.235138 1.814178,0.740257 2.452499,1.107002c0.634079,0.364311 1.480682,0.922302 1.968002,1.589333c0.595505,0.815117 0.914169,1.869362 1.097321,2.403999c0.264404,0.771851 0.439926,2.012421 0.777344,2.785332c0.334351,0.7659 0.858459,1.491791 1.12883,2.362503c0.202682,0.652733 0.394501,1.328735 0.582993,2.594498c0.114258,0.767265 0.120834,1.640335 0.121506,2.652c0.000595,0.905334 0,1.724335 0,2.714333c0,0.760002 0,1.599998 0,2.050003c0,1.469994 0,2 0,3.119995c0,0.590004 0,1.200005 0,2.480003c0,1.360001 0.000824,2.068832 -0.001328,2.790665c-0.002167,0.727837 -0.005005,1.454742 -0.019501,2.1735c-0.027969,1.385857 -0.035873,2.040802 -0.145844,3.229164c-0.09314,1.006538 -0.247147,1.834648 -0.40799,2.508003c-0.283615,1.187347 -0.42308,2.016327 -0.425339,2.825333c-0.002502,0.900002 -0.243408,1.831352 0.004501,2.795502c0.183578,0.713936 1.300003,0.704498 2.16217,0.704498c0.833328,0 1.812241,0.02597 2.631989,0c0.902695,-0.028595 1.610153,-0.426811 2.301346,-1.099998c0.607864,-0.592026 1.274628,-1.348427 2.066666,-1.900002c0.63237,-0.440384 1.366241,-0.776131 2.080658,-1.300003c0.652832,-0.478706 1.420044,-0.975479 2.100006,-1.399994c0.916489,-0.572174 1.484421,-1.164818 1.952667,-1.957169c0.431244,-0.729752 0.893448,-1.748306 1.220825,-2.36367c0.355972,-0.669106 0.966949,-1.66217 1.304504,-2.215164c0.527939,-0.864899 1.028183,-1.754982 1.289337,-2.366669c0.395508,-0.926361 0.597733,-1.607201 0.88533,-2.730667c0.21254,-0.830215 0.398895,-1.706917 0.5,-2.145828c0.197845,-0.858833 0.460175,-2.034729 0.800003,-2.944839c0.268982,-0.72036 0.53125,-2.344963 1.414658,-2.203995c0.656723,0.104797 0.285339,1.407997 0.285339,2.315498c0,0.821663 0,1.3125 0,2.479164c0,1.425339 0,2.2155 0,3.042671c0,0.853165 0,1.721329 0,2.593498c0,0.865166 0,2.530502 0,3.310837c0,0.742332 0,1.448662 0,2.120995c0,0.640335 0,1.250671 0,2.389336c0,1.042664 0,2.001335 0,2.872002c0,0.774666 0,1.445328 0,2.637001c0,1.033661 -0.033356,1.692879 0,2.700333c0.028595,0.863586 0.429047,1.711388 0.951828,2.462166c0.435562,0.625519 1.399994,0.702248 2.291,0.704498c0.957169,0.002419 1.857178,0 2.757172,0c0.707993,0 1.76442,0.006889 2.367004,-0.004501c1.029297,-0.019455 1.759689,-0.028648 2.811325,-0.217163c0.984924,-0.176559 1.616669,-0.346107 2.654999,-0.945c0.748184,-0.431541 1.140228,-0.870392 1.850677,-1.349335c0.965454,-0.650864 1.805481,-0.939911 2.546661,-1.282669c0.81073,-0.374924 1.585922,-0.875259 2.311005,-1.242996c0.815842,-0.413765 1.46785,-1.021179 1.979156,-1.479172c0.796036,-0.713028 1.548874,-1.349113 2.243179,-1.817833c0.623795,-0.421127 1.473755,-0.944168 2.02533,-1.518661c0.597366,-0.622177 1.070282,-1.465225 1.457993,-2.448006c0.271271,-0.687614 0.44397,-1.417824 0.919342,-2.361328c0.431992,-0.857414 1.033493,-1.568047 1.349335,-2.101334c0.504227,-0.851372 0.857056,-1.888168 1.037323,-2.617332c0.179825,-0.727386 0.348999,-1.791763 0.410675,-2.800003c0.041306,-0.675217 0.032501,-1.38401 0.036163,-2.557663c0.002716,-0.871346 0.01619,-1.798828 0.035828,-2.278336c0.040192,-0.981758 0.117172,-1.980354 0.248001,-2.97467c0.128143,-0.973831 0.218872,-1.441025 0.363342,-2.332497c0.189758,-1.170898 0.314819,-2.108116 0.341995,-2.911499c0.036957,-1.092766 0.010666,-1.730667 0.010666,-2.801666c0,-0.767334 0,-1.958336 0,-2.755669c0,-0.781334 0,-1.53067 0,-2.232002c0,-1.198662 0,-2.113335 0,-3.085335c0,-0.88533 0.201904,-1.721531 -0.057159,-2.585331c-0.231628,-0.772327 -1.267609,-1.320229 -1.957169,-1.599998c-0.797806,-0.323685 -1.38736,-0.502956 -2.587006,-0.900002c-0.608841,-0.201504 -1.553146,-0.509201 -2.565338,-0.799999c-0.714157,-0.205173 -1.444916,-0.402622 -2.171997,-0.563999c-1.322845,-0.29361 -2.141357,-0.403049 -2.995163,-0.431499c-0.91301,-0.030422 -1.838409,-0.069866 -2.70784,0.037167c-0.652832,0.080368 -1.650665,0.518669 -2.205002,0.830334c-0.924789,0.519947 -1.91806,1.131489 -2.641327,1.530666c-0.377151,0.208157 -1.176987,0.634533 -2.030838,1.111664c-0.454483,0.253967 -1.925262,1.126213 -2.449158,1.455002c-0.538818,0.338154 -1.085968,0.687023 -2.181335,1.415997c-0.546997,0.364021 -1.086609,0.726349 -2.11734,1.448006c-0.963699,0.674728 -1.413651,1.000069 -2.25,1.625c-0.391724,0.292702 -1.124557,0.837631 -2.040161,1.619995c-0.773071,0.660576 -1.40593,1.232155 -2.0215,1.900505c-0.604584,0.656425 -0.908768,1.562737 -0.996338,2.271828c-0.121017,0.979965 -0.433655,1.920143 -0.672668,2.554672c-0.352173,0.934967 -0.342239,1.694527 -0.352661,2.861328c-0.007065,0.791641 0,1.744003 0,2.655167c0,0.740669 0,1.450172 0,2.644836c0,0.673332 0,1.67083 0,2.768997c0,0.722672 0.001328,1.747002 0.035995,2.403l0.464005,0.8405" fill="none" id="svg_57" stroke="#000000" stroke-width="5"/>
  <path d="m223.5,94.5c1.825333,0 2.854538,0.127663 3.661331,-0.071999c0.928604,-0.229805 1.618088,-0.800018 2.160004,-1.185333c0.58963,-0.419243 1.481735,-1.159851 2.069672,-1.686333c0.570648,-0.510986 1.238663,-1.365585 2.138321,-1.800339c0.903854,-0.436783 1.916794,-0.175369 2.534668,-0.866661c0.596268,-0.667122 0.871399,-1.500565 1.621338,-1.989334c0.785385,-0.511879 1.243362,-1.075394 1.814667,-1.879166c0.435349,-0.612488 1.121796,-1.149376 1.699997,-1.815506c0.623505,-0.718315 1.567871,-0.931061 2.100006,-1.591995c0.58078,-0.721336 0.8302,-1.385002 1.199997,-2.446671c0.219437,-0.629982 0.502899,-1.693542 0.757172,-2.418495c0.382751,-1.091263 0.720612,-1.769524 1.078827,-2.433502c0.366974,-0.680206 0.785599,-1.373886 1.363831,-2.557335c0.206116,-0.421852 0.595428,-1.305557 0.964172,-2.206665c0.181763,-0.444153 0.676056,-1.71489 0.949326,-2.477333c0.353729,-0.986916 0.558289,-1.541794 0.802673,-2.604004c0.194702,-0.846294 0.413773,-1.887245 0.970673,-2.399998c0.659973,-0.607651 1.542053,-0.532581 2.514664,-0.855999c0.862549,-0.286819 1.765457,-0.879799 2.286652,-1.198666c0.874725,-0.53516 1.520142,-0.93964 2.645355,-1.514668c0.405945,-0.207455 1.278564,-0.605663 2.208313,-1c0.478455,-0.202923 1.460571,-0.601032 2.458344,-1c0.999573,-0.3997 1.497681,-0.601639 2.5,-0.979168c0.498871,-0.187897 1.494598,-0.55294 2.5,-0.854164c0.99231,-0.297306 1.48761,-0.42046 2.458344,-0.625c0.924347,-0.194767 1.367096,-0.287285 2.598328,-0.42017c1.047394,-0.113041 1.919983,-0.119247 2.800507,-0.121498c0.890991,-0.002277 1.838409,-0.112949 2.547333,0.171501c0.868561,0.348507 1.409088,1.126373 1.795502,1.6605c0.829803,1.147018 1.207947,1.763481 1.589325,2.378666c0.384094,0.619579 0.764984,1.257813 1.189148,2.310833c0.292084,0.725105 0.508484,1.497215 0.71701,2.283001c0.316406,1.192402 0.510803,1.993725 0.693848,2.795498c0.182251,0.798302 0.358917,1.595894 0.489166,2.800171c0.086761,0.802216 0.107391,1.62056 0.117004,2.457001c0.015045,1.309418 0.005493,2.23085 0,2.709c-0.011444,0.996399 -0.018097,1.517189 -0.080841,2.605827c-0.066986,1.162254 -0.130646,1.77124 -0.267334,3.033333c-0.069916,0.645645 -0.148895,1.294495 -0.222015,1.944c-0.144379,1.282326 -0.262299,2.517067 -0.304169,3.107674c-0.079956,1.128189 -0.094849,1.671906 -0.182495,2.721664c-0.042816,0.512833 -0.260468,2.024002 -0.3815,2.521164c-0.243866,1.001587 -0.411163,1.491966 -0.742493,2.464165c-0.324829,0.95314 -0.65332,1.867653 -0.930664,2.749336c-0.263733,0.838425 -0.486145,1.648293 -0.768005,2.400002c-0.404297,1.078239 -0.777008,1.727646 -1.095154,2.386665c-0.470673,0.974976 -0.798309,2.017372 -0.911011,2.739166c-0.108612,0.695549 0.145691,1.815079 -0.545837,2.627502c-0.562683,0.661057 -1.53241,0.474335 -1.517334,-0.206665c0.025848,-1.165909 0.229065,-1.924171 0.421326,-2.810669c0.107758,-0.49688 0.398621,-1.594406 0.589355,-2.194672c0.421967,-1.328079 0.702942,-2.042236 0.997314,-2.795998c0.308105,-0.788994 0.641907,-1.602982 0.987,-2.442001c0.353577,-0.85965 0.718536,-1.733101 1.076996,-2.621994c0.722473,-1.791557 1.063385,-2.693359 1.396027,-3.594673c0.331696,-0.898697 0.65155,-1.799217 0.964478,-2.699997c0.312408,-0.899231 0.617462,-1.799622 0.919525,-2.699997c0.603607,-1.79924 0.900543,-2.699379 1.199982,-3.593338c0.296234,-0.884369 0.58902,-1.753899 0.880493,-2.602501c0.283264,-0.824715 0.558929,-1.620049 0.83551,-2.377495c0.509949,-1.396553 0.759613,-2.020332 0.998657,-2.596001c0.221283,-0.532898 0.436249,-1.020416 0.64502,-1.464005c0.191528,-0.406967 0.374847,-0.775436 0.554993,-1.103996c0.311188,-0.567589 0.754181,-1.177956 1.285339,-1.944c0.526337,-0.759079 0.902252,-1.52272 1.301331,-2.318665c0.400909,-0.799549 0.681335,-1.40963 1.204498,-2.400002c0.32019,-0.60611 1.002625,-1.612282 1.520844,-2.189335c0.508331,-0.566044 1.288239,-1.326416 1.870148,-1.906166c0.603363,-0.601128 1.396362,-1.311623 2.304504,-1.304501c0.765717,0.006004 1.498138,0.559299 2.041656,1.0625c0.659302,0.61042 1.385376,1.353313 1.906525,1.894665c0.537048,0.557869 1.120972,1.093884 1.908813,2.343002c0.367004,0.58186 0.627472,1.21188 0.940338,2.185165c0.330292,1.02747 0.50766,1.765064 0.681824,2.514668c0.173126,0.745193 0.36084,1.832581 0.472687,2.85183c0.073364,0.668541 0.113922,1.367668 0.3815,2.481506c0.202911,0.844643 0.526276,1.728592 0.6875,2.1875c0.327515,0.932228 0.817535,2.31089 0.957489,2.757668c0.269775,0.861328 0.503143,1.6959 0.660004,2.516998c0.228943,1.198509 0.282593,2.006821 0.336334,2.825829c0.055786,0.850349 0.096222,1.750557 0.191986,2.712006c0.10321,1.036163 0.185272,1.572098 0.333344,2.666664c0.07431,0.549377 0.230957,1.630417 0.333344,2.666664c0.095245,0.964066 0.119476,1.427658 0.145813,2.333336c0.026337,0.905098 0.02182,2.333336 0.020691,2.842499c-0.002319,1.058342 -0.001556,1.597755 -0.035858,2.670837c-0.016754,0.524323 -0.105774,1.99054 -0.249329,2.830666c-0.12851,0.752121 -0.314056,1.427612 -0.714661,2.655998c-0.197144,0.6045 -0.525208,1.548569 -0.814331,2.214333c-0.491364,1.131424 -0.717102,1.534882 -1.200012,2.3955c-0.515076,0.917976 -0.802277,1.378433 -1.094666,1.842003c-0.876984,1.390434 -1.185333,1.83033 -1.786499,2.686501c-0.5784,0.823723 -0.870331,1.213661 -1.419159,1.974998c-0.766266,1.062981 -1.222382,1.72139 -1.643677,2.324165c-0.553314,0.791672 -1.938812,1.594322 -1.541656,2.395836c0.347931,0.702209 1.667267,0.190399 2.46167,0.157661c0.886505,-0.036537 1.540283,-0.109131 2.56015,-0.434334c0.75769,-0.2416 1.547241,-0.627434 2.397003,-1.079994c0.456818,-0.243294 1.925171,-1.117638 2.4505,-1.445999c0.541687,-0.338585 1.092743,-0.69088 2.216003,-1.416c0.566864,-0.365936 1.129944,-0.735237 2.248016,-1.448006c0.544159,-0.346909 1.609894,-1.013367 2.130646,-1.341331c0.515564,-0.324699 1.53418,-0.973976 2.034668,-1.309334c1.006775,-0.674622 2.001495,-1.397987 2.496857,-1.768669c0.495331,-0.370659 0.985016,-0.745575 1.947327,-1.494659c0.472504,-0.367805 1.392334,-1.083672 2.269165,-1.768669c0.422699,-0.330215 1.23941,-0.96846 1.969147,-1.636665c0.35376,-0.323952 1.300049,-1.352264 1.809021,-2.109001c0.513794,-0.763893 0.726807,-1.183716 1.192505,-2.025002c0.486389,-0.878662 0.999451,-1.797073 1.269989,-2.261497c0.54361,-0.933182 0.817261,-1.393402 1.363342,-2.282501c0.755615,-1.230209 1.227264,-1.944794 1.62149,-2.606834c0.352142,-0.591362 0.875366,-1.629433 0.990509,-2.3265c0.136475,-0.82634 0.476685,-2.385834 0.067505,-2.402832c-0.860565,-0.035751 -0.281738,1.862938 -0.442169,2.488167c-0.199493,0.777466 -0.331116,1.236893 -0.720001,3.012001c-0.16156,0.737396 -0.32074,1.550262 -0.490509,2.428497c-0.18103,0.936417 -0.365051,1.925415 -0.553497,2.959503c-0.195282,1.071571 -0.393127,2.17424 -0.789337,4.445328c-0.201263,1.153618 -0.399078,2.310829 -0.600006,3.463501c-0.199066,1.141998 -0.397095,2.266197 -0.600006,3.364502c-0.197174,1.067352 -0.381836,2.098557 -0.799988,4.005333c-0.191376,0.872696 -0.394653,1.687347 -0.591003,2.452499c-0.18512,0.721481 -0.369354,1.401138 -0.536987,2.047501c-0.159607,0.615341 -0.325989,1.201752 -0.538666,2.333336c-0.102051,0.543068 -0.169556,1.080566 -0.214508,1.609497c-0.04425,0.520538 -0.063354,1.036308 -0.061493,1.546501c0.001862,0.506241 0.015015,1.010681 0.109314,2.010666c0.047211,0.500465 0.114624,0.998177 0.195007,1.490997c0.079681,0.488571 0.146179,0.976013 0.399994,1.894669c0.357788,1.294983 0.691162,2.056473 1.06369,2.710327c0.482635,0.847153 1.093781,1.704559 1.870148,1.890503c0.87973,0.210709 1.747162,0.014664 2.445831,0.013504c1.198669,-0.001999 1.994293,-0.009277 2.865326,-0.108002c0.455688,-0.051651 1.842102,-0.356033 2.713348,-0.750671c0.449524,-0.203613 1.34494,-0.741714 1.813324,-1.045334c0.493439,-0.319855 2.132416,-1.43071 2.752014,-1.838821c0.649719,-0.427948 1.325928,-0.866058 2.015991,-1.318512c0.69931,-0.458527 1.399658,-0.920563 2.088013,-1.390488c0.676971,-0.462151 1.948486,-1.375717 2.524658,-1.826508c0.549011,-0.429527 1.061035,-0.855713 1.541992,-1.275002c0.908417,-0.791954 1.315063,-1.197319 2.544006,-2.279999c0.396332,-0.349174 1.194702,-1.010483 1.589325,-1.330666c0.773132,-0.627266 1.533325,-1.225235 2.244019,-1.835999c0.689209,-0.592293 1.338196,-1.203232 1.955994,-1.835999c0.309967,-0.317482 1.222595,-1.3209 1.809326,-2.050667c0.603119,-0.750168 0.894196,-1.145744 1.444183,-1.974998c0.278839,-0.420425 1.04129,-1.757088 1.273163,-2.223671c0.469757,-0.945229 0.681793,-1.436516 1.136658,-2.419167c0.230225,-0.497345 0.966278,-1.996925 1.231323,-2.496834c0.53653,-1.011902 0.819489,-1.517654 1.090668,-2.034668c0.548431,-1.045647 1.067444,-2.126869 1.303497,-2.685165c0.473389,-1.119675 0.673676,-1.690422 0.859344,-2.257996c0.361572,-1.105301 0.533417,-1.642876 0.819824,-3.178001c0.087921,-0.471222 0.183594,-1.382515 0.293335,-2.2575c0.108978,-0.869095 0.386627,-2.208481 0.517334,-2.672005c0.271576,-0.963196 0.444977,-1.451332 0.726685,-2.474998c0.143982,-0.523216 0.475586,-2.158127 0.533325,-2.722328c0.116516,-1.138878 0.119781,-1.716003 0.114655,-2.290672c-0.010223,-1.141701 -0.092072,-2.260727 -0.229309,-3.337334c-0.06665,-0.522957 -0.244904,-1.527824 -0.360016,-2.005333c-0.220703,-0.915527 -0.641296,-2.156219 -1.014984,-2.859329c-0.349304,-0.657257 -0.971558,-1.518272 -1.759674,-2.080338c-0.758636,-0.541054 -1.357208,-0.712074 -2.412018,-1.142998c-0.707642,-0.289093 -1.512115,-0.621628 -2.53067,-0.97467c-0.842224,-0.291924 -1.405487,-0.871056 -2.307983,-1.014664c-0.860382,-0.136909 -1.617157,-0.038033 -2.494171,0.103668c-1.011078,0.163361 -1.73407,0.433098 -2.49115,0.789665c-0.839996,0.395615 -1.282715,0.644691 -2.676025,1.596001c-0.517792,0.353523 -1.04248,0.754868 -1.580994,1.189499c-0.56311,0.454475 -1.134247,0.94886 -1.707001,1.486504c-0.594971,0.558495 -1.208496,1.145218 -2.378662,2.490662c-0.613983,0.705978 -1.201263,1.462669 -1.786499,2.235001c-0.586792,0.774368 -1.152222,1.555801 -1.705505,2.325005c-0.537689,0.747482 -1.039429,1.475952 -2.007996,2.773331c-0.429657,0.575508 -0.84079,1.091095 -1.219513,1.566002c-0.350677,0.439728 -0.714478,0.823555 -1.252655,1.62133c-0.74939,1.110878 -0.918091,1.543282 -1.208984,2.413498c-0.2901,0.867775 -0.47879,1.732491 -0.652191,2.89917c-0.095825,0.644684 -0.155121,1.478989 -0.165314,2.26667c-0.015533,1.201233 -0.001343,1.883995 -0.001343,2.927994c0,0.972 -0.025116,1.801819 0.036011,2.556c0.088104,1.08696 0.235779,1.721794 0.484833,2.770172c0.174194,0.733307 0.473724,1.814125 0.679169,2.493828c0.292267,0.966873 0.496735,1.581917 0.899994,2.785004c0.198395,0.591873 0.438019,1.45723 0.899994,2.366997c0.354065,0.697289 1.019257,1.488861 1.399994,2.169334c0.421661,0.753616 0.773834,1.576935 1.200012,2.328003c0.471588,0.831108 1.051392,1.630829 1.920837,1.815163c0.947693,0.20092 1.569794,0.024467 2.336487,0.191505c1.019531,0.22213 1.818207,0.54052 2.726013,0.850166c0.484406,0.165222 1.500061,0.517387 2.583313,0.8125c1.117004,0.304314 1.70343,0.41671 2.301331,0.541328c0.614777,0.128136 1.908234,0.376961 2.589355,0.509338c1.443085,0.280457 2.207001,0.436455 2.996002,0.599998c0.809326,0.167763 1.63324,0.341827 2.467499,0.515999c0.83905,0.175163 1.677673,0.35051 2.512482,0.515999c1.632111,0.323547 2.422668,0.464378 3.190674,0.598671c0.743378,0.129982 1.461334,0.249321 2.151001,0.364494c0.659668,0.110161 1.291199,0.195801 2.958344,0.520836c0.481689,0.09391 1.33371,0.294701 2.388,0.564003c0.588104,0.150215 1.815765,0.403152 2.617004,0.431496c0.903931,0.031975 1.861664,0.004501 2.76181,0.004501c0.785187,0 1.745422,0.056633 2.50116,-0.085335c1.019592,-0.191536 1.655273,-0.533356 2.398682,-1.248001c0.654297,-0.629005 1.00827,-1.202621 1.600006,-2.069328c0.608582,-0.89138 0.993591,-1.497269 1.399994,-2.0765c0.59079,-0.842049 1.186127,-1.61174 1.799988,-2.284836c0.586975,-0.643631 1.214508,-1.222046 1.791016,-1.835999c0.551178,-0.58699 1.194061,-1.592728 1.358337,-2.232002c0.18811,-0.731995 0.488342,-2.034111 0.621338,-2.422668c0.289825,-0.846695 0.646454,-1.743073 0.838318,-2.201668c0.578339,-1.382362 0.991943,-2.261902 1.19101,-2.699997c0.401886,-0.884468 0.805786,-1.808327 1,-2.298332c0.412384,-1.040504 0.801331,-2.195557 1,-2.798836c0.201355,-0.611389 0.392242,-1.228264 0.799988,-2.431328c0.196289,-0.579109 0.792725,-2.132164 0.997345,-2.572502c0.368896,-0.793892 0.816437,-1.426392 1.269318,-2.576004c0.272156,-0.690865 0.328827,-1.562134 0.333344,-2.569328c0.003876,-0.869331 0,-1.930672 0,-2.565338c0,-1.031998 0,-1.726662 0,-2.698662c0,-0.823502 0,-1.781502 0,-2.754837c0,-0.814499 0,-1.682999 0,-2.578499c0,-0.890999 0.027954,-1.728348 -0.000153,-2.857002c-0.017975,-0.722328 -0.3284,-1.741089 -1.19986,-2.057663c-0.849701,-0.30867 -1.803558,-0.129021 -2.507996,-0.049332c-1.066498,0.120651 -1.687622,0.31369 -2.416992,0.588997c-0.874176,0.329956 -1.359375,0.562935 -2.375,1.208336c-1.188995,0.755577 -1.788086,1.270355 -2.429321,1.810661c-0.683075,0.575546 -1.382965,1.216797 -2.098511,1.921501c-0.755707,0.744255 -2.312714,2.428268 -3.115326,3.363167c-0.836395,0.974228 -1.677704,2.003708 -2.53952,3.066002c-0.881866,1.087006 -1.771759,2.199699 -2.683502,3.318001c-0.918884,1.127052 -2.794312,3.359413 -3.754639,4.444168c-0.953094,1.076584 -1.917053,2.125519 -2.872528,3.1605c-0.942871,1.021339 -1.876953,2.022003 -2.782501,3.016495c-0.887726,0.97493 -2.56665,2.892006 -3.337646,3.844337c-0.750183,0.92662 -1.453003,1.849388 -2.110504,2.764496c-0.638611,0.888817 -1.233337,1.769539 -1.786499,2.638504c-0.53595,0.841927 -1.496246,2.481819 -1.924683,3.275169c-0.412689,0.764175 -0.789551,1.508804 -1.135498,2.228996c-0.330139,0.687294 -0.628906,1.347771 -0.901489,1.976997c-0.256561,0.592216 -0.69635,1.670273 -0.884674,2.151337c-0.172882,0.441658 -0.326385,0.847908 -0.46048,1.221001c-0.12207,0.339653 -0.227631,0.649933 -0.316498,0.932999c-0.080261,0.255692 -0.202118,0.698402 -0.24469,0.889503c-0.038513,0.172989 -0.066864,0.332664 -0.08548,0.481499c-0.017548,0.140221 -0.026855,0.27594 -0.031525,0.4095c-0.0047,0.134453 -0.004486,0.418495 -0.004486,0.573662c0,0.166168 0,0.344337 0,0.5355c0,0.20517 -0.000031,0.425339 0,0.914673c0.000092,0.870667 -0.001862,1.879227 0.036011,2.577332c0.037048,0.683441 0.221588,1.890625 0.484833,2.629837c0.254059,0.713455 0.679169,1.704834 0.979156,2.520828c0.299988,0.815994 0.645905,1.843887 1.020844,2.458328c0.566467,0.928329 1.143005,1.279251 1.883667,1.794342c0.802887,0.558365 1.402374,1.076126 1.995483,1.651825c0.80957,0.785797 1.399994,1.395508 2,1.995499c0.600006,0.600006 1.195465,1.195526 1.764008,1.764008c0.814453,0.814362 1.375946,1.497437 2.144989,1.783325c0.981903,0.365036 1.728271,0.410004 2.31601,0.636002c0.719116,0.276505 2.043121,0.913818 2.560669,1.180832c0.554596,0.286118 1.736908,0.922653 2.355988,1.256668c0.628906,0.339325 1.26001,0.682205 1.893005,1.012512c1.228119,0.640839 1.818237,0.932129 2.946503,1.452332c0.534332,0.246353 1.561737,0.692413 2.052673,0.905334c1.400238,0.607315 1.844269,0.808762 2.699982,1.199997c0.803619,0.367432 1.528259,0.748215 2.532837,1.075668c0.80603,0.262726 1.724304,0.328827 2.732025,0.333328c0.76532,0.003418 1.722656,0 2.582642,0c0.85202,0 1.644012,0 2.588013,0c0.514008,0 1.596008,0.000061 2.152008,0c1.657837,-0.000168 2.198914,0.007874 3.285309,-0.021332c0.55603,-0.014954 1.718445,-0.083527 2.333344,-0.149338c1.32901,-0.142227 2.0466,-0.267059 2.798676,-0.399994c0.781982,-0.138214 1.584778,-0.297592 2.402985,-0.471008c0.829834,-0.175873 1.662994,-0.363235 2.493011,-0.560989c1.633942,-0.389297 2.422821,-0.593781 3.190674,-0.798676c0.747803,-0.199554 1.472473,-0.403427 2.170502,-0.619492c0.676636,-0.209442 1.347778,-0.378571 3.104156,-1.145844c0.543732,-0.237534 1.060913,-0.495895 2.002655,-1.090668c0.463684,-0.292847 1.346588,-0.954681 1.778687,-1.314667c0.897125,-0.747375 1.803802,-1.594711 2.266815,-2.037827c0.469055,-0.448883 0.938812,-0.903397 1.84201,-1.841995c0.444366,-0.461792 1.284241,-1.374863 2.043152,-2.266846c0.369629,-0.434448 0.728302,-0.876007 1.453339,-1.778656c0.376709,-0.468994 0.763,-0.960327 1.613342,-2.00267c0.462677,-0.567139 0.959595,-1.16217 1.476013,-1.798492c0.545044,-0.671585 1.113007,-1.384689 1.691986,-2.149506c0.608643,-0.804001 1.248749,-1.649719 2.498657,-3.552002c0.66983,-1.019424 1.325378,-2.10881 1.994995,-3.242996c0.690582,-1.169739 1.381378,-2.381226 2.085022,-3.621002c0.7164,-1.262215 1.430817,-2.549271 2.919983,-5.136002c0.750244,-1.303169 1.518036,-2.60437 2.290497,-3.913498c0.778198,-1.318878 1.566101,-2.647583 2.353516,-3.994499c0.796265,-1.362076 1.607758,-2.738464 3.189331,-5.592003c0.808746,-1.459175 1.602478,-2.950699 2.399994,-4.458c0.80249,-1.516693 1.598755,-3.042656 2.399994,-4.566002c0.798767,-1.518654 1.582977,-3.033287 3.200012,-5.975998c0.791351,-1.440102 1.595001,-2.845329 2.390991,-4.2285c0.7854,-1.364815 1.569275,-2.707893 2.337006,-4.039497c0.759552,-1.317413 1.522675,-2.616348 2.93866,-5.232002c0.700592,-1.294159 1.367462,-2.594955 2.01001,-3.8955c0.637421,-1.290192 1.247192,-2.580383 1.829987,-3.8685c0.577148,-1.275627 1.140564,-2.542282 2.160004,-5.069332c0.500488,-1.240631 0.966248,-2.476006 1.419006,-3.696003c0.445862,-1.201366 0.872711,-2.387325 1.292999,-3.551998c0.412354,-1.142658 0.805542,-2.266266 1.621338,-4.418667c0.393524,-1.03825 0.797363,-2.047195 1.195496,-3.037498c0.392517,-0.976357 0.786285,-1.940628 1.168518,-2.9025c0.381409,-0.959801 0.771332,-1.919224 1.46933,-3.893333c0.355408,-1.005157 0.684448,-2.028866 1.000488,-3.058502c0.314636,-1.025074 0.608368,-2.044365 0.883514,-3.0495c0.268433,-0.980587 0.522888,-1.931709 0.94931,-3.725334c0.195984,-0.824345 0.365692,-1.6047 0.519012,-2.342999c0.145172,-0.699081 0.274231,-1.365042 0.393005,-2.000999c0.113831,-0.609392 0.217041,-1.197626 0.421326,-2.322668c0.09903,-0.545475 0.199768,-1.082466 0.295502,-1.613998c0.09494,-0.527138 0.186737,-1.052179 0.268494,-1.578001c0.081909,-0.526863 0.165771,-1.057116 0.269348,-2.141333c0.052887,-0.553816 0.084839,-1.115837 0.109497,-1.681501c0.024689,-0.566357 0.038269,-1.130966 0.046478,-1.690498c0.008118,-0.551476 0.01001,-1.092 0.010681,-2.128001c0.000305,-0.490499 0,-0.964 0,-1.4235c0,-0.4485 0,-0.889 0,-1.3245c0,-0.433499 0.000153,-0.867999 0,-1.752c-0.000092,-0.454666 0.000153,-0.917345 -0.004486,-1.386c-0.004669,-0.472684 -0.013336,-0.94744 -0.031525,-1.422c-0.018127,-0.472792 -0.033813,-0.942841 -0.130646,-1.858667c-0.04715,-0.445861 -0.114532,-0.88046 -0.186005,-1.305c-0.069946,-0.415469 -0.1474,-0.819988 -0.222015,-1.215c-0.072723,-0.384989 -0.152466,-0.758271 -0.258667,-1.48c-0.050659,-0.344258 -0.084198,-0.679854 -0.113983,-1.005c-0.028839,-0.314866 -0.051208,-0.62013 -0.078003,-0.915c-0.025909,-0.285133 -0.042419,-0.562848 -0.141327,-1.08c-0.047119,-0.246433 -0.113403,-0.480445 -0.190521,-0.7005c-0.073822,-0.210656 -0.158569,-0.406298 -0.253479,-0.5835c-0.089142,-0.16644 -0.174164,-0.325441 -0.389343,-0.549333c-0.093475,-0.097245 -0.19812,-0.168973 -0.304504,-0.219c-0.103424,-0.048641 -0.215668,-0.076903 -0.331482,-0.093c-0.120667,-0.01677 -0.249359,-0.020754 -0.53067,-0.021333c-0.155334,-0.00032 -0.323303,0.000522 -0.503998,0.0225c-0.198303,0.024118 -0.415833,0.072497 -0.64801,0.1575c-0.261292,0.095661 -0.555786,0.220801 -1.181335,0.653333c-0.37677,0.260521 -0.771637,0.59976 -1.207489,0.993c-0.491516,0.443453 -1.024933,0.962046 -1.612518,1.551c-0.65448,0.656025 -1.371033,1.393188 -3.013336,3.122667c-0.94165,0.991629 -1.953949,2.071407 -3.037476,3.228c-1.149841,1.227371 -2.358459,2.521889 -3.622528,3.876c-1.31427,1.407885 -2.672241,2.865001 -5.506653,5.896c-1.464294,1.565849 -2.960388,3.16106 -4.480499,4.794001c-1.550598,1.665697 -3.127533,3.36912 -4.723511,5.118c-1.627777,1.783724 -3.28952,3.602083 -6.629333,7.421331c-1.718933,1.965679 -3.440399,3.987385 -5.16748,6.052502c-1.746368,2.088173 -3.486237,4.211975 -5.212524,6.3675c-1.732117,2.162815 -3.46167,4.331829 -6.786652,8.746666c-1.648804,2.189259 -3.248657,4.390617 -4.806,6.595501c-1.543945,2.185909 -3.04068,4.374844 -4.481995,6.568501c-1.425903,2.170189 -2.830048,4.321739 -5.378662,8.669334c-1.248688,2.130096 -2.413757,4.263351 -3.516022,6.377998c-1.078796,2.069656 -2.084381,4.114052 -3.011993,6.125999c-0.899261,1.950432 -1.759918,3.841354 -3.138672,7.496002c-0.643311,1.705208 -1.183502,3.357536 -1.657501,4.944c-0.451935,1.512611 -0.834442,2.969604 -1.162476,4.367996c-0.313049,1.334526 -0.586365,2.615089 -1.013336,5.021332c-0.199402,1.123741 -0.366699,2.201889 -0.514496,3.234001c-0.141266,0.986618 -0.261292,1.932106 -0.361511,2.838005c-0.095886,0.866821 -0.181976,1.697731 -0.29068,3.26133c-0.051086,0.734947 -0.084442,1.442543 -0.109497,2.124001c-0.02417,0.657227 -0.038208,1.292633 -0.046478,1.907997c-0.008026,0.597313 -0.010162,1.178673 -0.010681,2.301338c-0.000244,0.545662 -0.000183,1.085335 0.004486,1.623001c0.004669,0.53968 0.013641,1.085411 0.031525,1.640999c0.018341,0.569763 0.038452,1.158096 0.130646,2.402664c0.049225,0.664627 0.115936,1.353775 0.195007,2.0625c0.080841,0.72464 0.17511,1.459045 0.285004,2.197495c0.110107,0.739914 0.219574,1.477478 0.519989,2.906677c0.14566,0.692978 0.314575,1.369354 0.508514,2.032501c0.194092,0.663651 0.418701,1.325623 0.679504,1.987488c0.267975,0.680084 0.560608,1.380692 1.311981,2.813339c0.40506,0.772339 0.869843,1.560593 1.371002,2.371506c0.519928,0.841324 1.080719,1.695526 1.677002,2.560501c0.610931,0.8862 1.243225,1.785828 2.618683,3.567993c0.7005,0.907639 1.435364,1.805603 2.181,2.713501c0.755676,0.920135 1.529327,1.847351 2.306976,2.794495c0.789734,0.961838 1.600861,1.932907 3.17868,3.992004c0.80957,1.056519 1.602509,2.148727 2.386505,3.262497c0.788055,1.119583 1.557281,2.254181 2.305481,3.397507c0.742798,1.135071 1.471832,2.261429 2.808014,4.506668c0.645294,1.084335 1.247986,2.158508 1.833008,3.209991c0.572266,1.028564 1.123383,2.041092 1.67099,3.029999c0.53775,0.971069 1.055115,1.933273 2.162659,3.76001c0.543518,0.896484 1.109985,1.76181 1.677002,2.605499c0.555756,0.82692 1.11319,1.624695 1.658997,2.398499c0.5289,0.749847 1.050507,1.465179 1.997345,2.82933c0.438995,0.632477 0.844177,1.239014 1.223999,1.815002c0.358765,0.544067 0.692108,1.060364 1.007996,1.544998c0.296814,0.455353 0.567963,0.887482 1.101349,1.639999c0.240234,0.338928 0.477814,0.645721 0.704987,0.928497c0.212982,0.265137 0.419952,0.509048 0.61499,0.739502c0.184967,0.218552 0.368439,0.421463 0.680023,0.832001c0.149231,0.196625 0.28241,0.396622 0.409485,0.591003c0.122253,0.186981 0.234894,0.368256 0.346497,0.537003c0.104828,0.158539 0.194061,0.315201 0.410675,0.538666c0.093811,0.096756 0.196991,0.168381 0.299988,0.218994c0.097473,0.047897 0.200012,0.072662 0.300018,0.093002l0.100006,0.012329l0.099976,0.006332" fill="none" id="svg_58" stroke="#000000" stroke-width="5"/>
 </g>
</svg>